# xmcd CD database file
#
# Track frame offsets:
#	183
#	12250
#	25900
#	37990
#	48603
#	60610
#	73645
#	85755
#	99460
#	109360
#	122903
#	133185
#	146905
#	160223
#	169513
#	183520
#	197085
#	205958
#
# Disc length: 2915 seconds
#
# Revision: 2
# Processed by: cddbd v1.4PL0 Copyright (c) Steve Scherf et al.
# Submitted via: NeoAudio 9.9.9
#
DISCID=060b6112
DTITLE=Dolly Parton - Country girl
DYEAR=1991
DGENRE=Country
TTITLE0=JOLENE
TTITLE1=MY TENNESSEE MOUNTAIN HOME
TTITLE2=THE BARGIN STORE
TTITLE3=LOVE IS LIKE A BUTTERFLY
TTITLE4=JUST THE TWO OF US(WITH PORTER WAGONER)
TTITLE5=I WILL  ALWAYS LOVE YOU
TTITLE6=TOUCH YOUR WOMAN
TTITLE7=THE SEEKER
TTITLE8=TRAVELLING MAN
TTITLE9=DADDY COME AND GET ME
TTITLE10=MY BLUE TEARS
TTITLE11=COAT OF MANY COLOURS
TTITLE12=JOSHUA
TTITLE13=WASHDAY BLUES
TTITLE14=MULE SKINNER BLUES(BLUE JODEL NO.8)
TTITLE15=COMMING FOR TO CARRY ME HOME
TTITLE16=AFRAID TO LOVE AGAIN(WITH PORTER WAGONER)
TTITLE17=I WASH MY FACE IN THE MORNING DEW(WITH PORTER WAGONER)
EXTD=YEAR: 1991
EXTT0=
EXTT1=
EXTT2=
EXTT3=
EXTT4=
EXTT5=
EXTT6=
EXTT7=
EXTT8=
EXTT9=
EXTT10=
EXTT11=
EXTT12=
EXTT13=
EXTT14=
EXTT15=
EXTT16=
EXTT17=
PLAYORDER=
